<svg width="24" height="24" viewBox="0 0 24 24" fill="none" xmlns="http://www.w3.org/2000/svg">
<path style="stroke:#ABB3C4;stroke-width:1;" d="M17.2,9.6V4.5
	c0-0.2-0.1-0.4-0.2-0.6c-0.1-0.2-0.2-0.3-0.4-0.4l-4-2.3c-0.2-0.1-0.4-0.2-0.6-0.2s-0.4,0.1-0.6,0.2l-4,2.3C7.3,3.6,7.2,3.7,7.1,3.9
	C7,4.1,6.9,4.3,6.9,4.5v5.1c0,0,3.4,2,5.1,3C15,11,17.1,9.6,17.2,9.6z"/>
<path style="stroke:#ABB3C4;stroke-width:1;" d="M7.1,3.9l5,2.9l5-2.9"/>
<path style="stroke:#ABB3C4;stroke-width:1;" d="M12.1,12.5V6.8"/>
<g>
	<path style="stroke:#ABB3C4;stroke-width:1;" d="M22.2,17.6V13
		c0-0.2-0.1-0.4-0.2-0.6c-0.1-0.2-0.2-0.3-0.4-0.4l-4-2.3c-0.2-0.1-0.4-0.2-0.6-0.2s-0.4,0.1-0.6,0.2l-4,2.3
		c-0.2,0.1-0.3,0.2-0.4,0.4c-0.1,0.2-0.2,0.4-0.2,0.6v4.6c0,0.2,0.1,0.4,0.2,0.6c0.1,0.2,0.2,0.3,0.4,0.4l4,2.3
		c0.2,0.1,0.4,0.2,0.6,0.2s0.4-0.1,0.6-0.2l4-2.3c0.2-0.1,0.3-0.2,0.4-0.4C22.1,18,22.2,17.8,22.2,17.6z"/>
	<path style="stroke:#ABB3C4;stroke-width:1;" d="M12.1,12.5l5,2.9l5-2.9"
		/>
	<path style="stroke:#ABB3C4;stroke-width:1;" d="M17.1,21.1v-5.7"/>
</g>
<g>
	<path style="stroke:#ABB3C4;stroke-width:1;" d="M12.1,17.6V13
		c0-0.2-0.1-0.4-0.2-0.6c-0.1-0.2-0.2-0.3-0.4-0.4l-4-2.3C7.3,9.7,7.1,9.6,6.9,9.6S6.5,9.7,6.4,9.8l-4,2.3c-0.2,0.1-0.3,0.2-0.4,0.4
		c-0.1,0.2-0.2,0.4-0.2,0.6v4.6c0,0.2,0.1,0.4,0.2,0.6c0.1,0.2,0.2,0.3,0.4,0.4l4,2.3C6.5,21,6.7,21,6.9,21s0.4-0.1,0.6-0.2l4-2.3
		c0.2-0.1,0.3-0.2,0.4-0.4C12,18,12.1,17.8,12.1,17.6z"/>
	<path style="stroke:#ABB3C4;stroke-width:1;" d="M2,12.4l5,2.9l5-2.9"/>
	<path style="stroke:#ABB3C4;stroke-width:1;" d="M6.9,21.1v-5.7"/>
</g>
</svg>
