<!-- <?xml version="1.0" encoding="utf-8"?> -->
<!-- Generator: Adobe Illustrator 23.0.3, SVG Export Plug-In . SVG Version: 6.00 Build 0)  -->
<svg xmlns="http://www.w3.org/2000/svg"  width="24" height="24"
	 viewBox="0 0 30 24" style="0 0 30 24;" >
<path stroke="#ABB3C4" fill="none" stroke-width="2" d="M10.7,12c3.3,0,6-2.7,6-6s-2.7-6-6-6s-6,2.7-6,6S7.3,12,10.7,12z M8.5,14.3c-4.6,0-8.4,3.7-8.4,8.4c0,0.8,0.6,1.4,1.4,1.4
	h18.2c0.5,0,0.9-0.2,1.1-0.6l-4.6-4.7c-0.7-0.7-1.1-1.6-1.1-2.6v-1.5c-0.7-0.2-1.5-0.3-2.4-0.3L8.5,14.3L8.5,14.3z M18.2,10.5
	c-0.8,0-1.5,0.7-1.5,1.5v3.9c0,0.8,0.3,1.6,0.9,2.1l5,5c0.9,0.9,2.3,0.9,3.2,0l3.4-3.4c0.9-0.9,0.9-2.3,0-3.2l-5-5
	c-0.6-0.6-1.3-0.9-2.1-0.9H18.2z M19.3,14.3c0-0.6,0.5-1.1,1.1-1.1c0.6,0,1.1,0.5,1.1,1.1s-0.5,1.1-1.1,1.1
	C19.8,15.4,19.3,14.9,19.3,14.3z"/>
</svg>
